<svg width="20.000000" height="20.000000" viewBox="0 0 20 20" fill="none" xmlns="http://www.w3.org/2000/svg" xmlns:xlink="http://www.w3.org/1999/xlink">
	<desc>
			Created with Pixso.
	</desc>
	<defs>
		<clipPath id="clip10_4">
			<rect id="twitter" width="20.000000" height="20.000000" fill="white" fill-opacity="0"/>
		</clipPath>
	</defs>
	<rect id="twitter" width="20.000000" height="20.000000" fill="#FFFFFF" fill-opacity="0"/>
	<g clip-path="url(#clip10_4)">
		<path id="Vector" d="M20 3.79883C19.2562 4.125 18.4637 4.34131 17.6375 4.44629C18.4875 3.93896 19.1362 3.14111 19.4413 2.18018C18.6488 2.65234 17.7738 2.98633 16.8412 3.17236C16.0887 2.37109 15.0163 1.875 13.8463 1.875C11.5762 1.875 9.74875 3.71729 9.74875 5.97607C9.74875 6.30127 9.77625 6.61377 9.84375 6.91113C6.435 6.74512 3.41875 5.11133 1.3925 2.62256C1.03875 3.23633 0.831253 3.93896 0.831253 4.69482C0.831253 6.11523 1.5625 7.37354 2.6525 8.10254C1.99375 8.08984 1.3475 7.89893 0.800003 7.59766C0.800003 7.60986 0.800003 7.62646 0.800003 7.64258C0.800003 9.63477 2.22125 11.29 4.085 11.6714C3.75125 11.7627 3.3875 11.8062 3.01 11.8062C2.7475 11.8062 2.4825 11.791 2.23375 11.7363C2.765 13.3599 4.2725 14.5537 6.065 14.5923C4.67 15.6836 2.89875 16.3413 0.981247 16.3413C0.644997 16.3413 0.322502 16.3262 0 16.2852C1.81625 17.4561 3.96875 18.125 6.29 18.125C13.835 18.125 17.96 11.875 17.96 6.45752C17.96 6.27637 17.9538 6.10107 17.945 5.92773C18.7588 5.3501 19.4425 4.62891 20 3.79883Z" fill="#FFFFFF" fill-opacity="1.000000" fill-rule="nonzero"/>
	</g>
</svg>
